<?xml version="1.0" standalone="no"?>
<!DOCTYPE svg PUBLIC "-//W3C//DTD SVG 20010904//EN"
 "http://www.w3.org/TR/2001/REC-SVG-20010904/DTD/svg10.dtd">
<svg version="1.0" xmlns="http://www.w3.org/2000/svg"
 width="225.000000pt" height="225.000000pt" viewBox="0 0 225.000000 225.000000"
 preserveAspectRatio="xMidYMid meet">
<metadata>
Created by potrace 1.14, written by Peter Selinger 2001-2017
</metadata>
<g transform="translate(0.000000,225.000000) scale(0.100000,-0.100000)"
fill="#000000" stroke="none">
<path d="M1005 2209 c-378 -40 -724 -297 -877 -651 -58 -134 -79 -231 -85
-393 -6 -166 15 -292 74 -439 263 -660 1067 -895 1648 -481 77 55 195 175 252
257 304 433 254 1019 -120 1393 -179 178 -394 283 -650 315 -91 11 -126 11
-242 -1z m552 -334 c21 -18 51 -60 67 -94 28 -57 29 -63 14 -78 -16 -15 -14
-18 21 -43 24 -18 45 -46 60 -79 21 -51 22 -59 19 -399 -3 -390 -2 -382 -81
-446 -38 -30 -41 -31 -163 -34 -76 -2 -124 -8 -124 -14 0 -6 14 -37 32 -70 47
-88 157 -201 247 -254 87 -50 76 -56 -57 -28 -200 41 -362 142 -488 306 l-45
57 -288 3 -288 3 -41 29 c-23 16 -50 46 -62 70 -19 40 -20 61 -20 395 0 326 1
355 19 389 24 47 56 77 103 97 31 12 92 15 365 15 l328 0 124 124 124 124 48
-20 c26 -11 65 -35 86 -53z"/>
<path d="M1068 1512 l-367 -367 -25 -98 -24 -99 21 6 c12 3 56 13 99 22 l76
17 369 369 368 369 -26 47 c-19 34 -39 54 -75 74 l-50 27 -366 -367z"/>
</g>
</svg>
